<svg xmlns="http://www.w3.org/2000/svg" width="401.98" height="559.472" viewBox="0 0 401.98 559.472"><path fill-rule="evenodd" clip-rule="evenodd" fill="#F6D2A2" stroke="#000" stroke-width="3" stroke-linecap="round" d="M10.634 300.493c.764 15.751 16.499 8.463 23.626 3.539 6.765-4.675 8.743-.789 9.337-10.015.389-6.064 1.088-12.128.744-18.216-10.23-.927-21.357 1.509-29.744 7.602-4.32 3.139-12.42 13.158-3.963 17.09"/><path fill-rule="evenodd" clip-rule="evenodd" fill="#C6B198" stroke="#000" stroke-width="3" stroke-linecap="round" d="M10.634 300.493c2.29-.852 4.717-1.457 6.271-3.528"/><path fill-rule="evenodd" clip-rule="evenodd" fill="#6AD7E5" stroke="#000" stroke-width="3" stroke-linecap="round" d="M46.997 112.853C-13.3 95.897 31.536 19.189 79.956 50.74l-32.959 62.113zm267.898-67.869c47.727-33.523 90.856 42.111 35.388 61.141l-35.388-61.141z"/><path fill-rule="evenodd" clip-rule="evenodd" fill="#F6D2A2" stroke="#000" stroke-width="3" stroke-linecap="round" d="M325.161 494.343c12.123 7.501 34.282 30.182 16.096 41.18-17.474 15.999-27.254-17.561-42.591-22.211 6.605-8.97 14.977-17.149 26.495-18.969z"/><path clip-rule="evenodd" fill="none" stroke="#000" stroke-width="3" stroke-linecap="round" d="M341.257 535.522c-2.696-5.361-3.601-11.618-8.102-15.939"/><path fill-rule="evenodd" clip-rule="evenodd" fill="#F6D2A2" stroke="#000" stroke-width="3" stroke-linecap="round" d="M108.579 519.975c-14.229 2.202-22.238 15.039-34.1 21.558-11.178 6.665-15.454-2.134-16.461-3.92-1.752-.799-1.605.744-4.309-1.979-10.362-16.354 10.797-28.308 21.815-36.432 15.346-3.102 24.963 10.202 33.055 20.773z"/><path clip-rule="evenodd" fill="none" stroke="#000" stroke-width="3" stroke-linecap="round" d="M58.019 537.612c.542-6.233 5.484-10.407 7.838-15.677"/><path fill-rule="evenodd" clip-rule="evenodd" d="M49.513 91.667c-7.955-4.208-13.791-9.923-8.925-19.124 4.505-8.518 12.874-7.593 20.83-3.385L49.513 91.667zm288.203-8c7.955-4.208 13.791-9.923 8.925-19.124-4.505-8.518-12.874-7.593-20.83-3.385l11.905 22.509z"/><path fill-rule="evenodd" clip-rule="evenodd" fill="#F6D2A2" stroke="#000" stroke-width="3" stroke-linecap="round" d="M392.475 298.493c-.764 15.751-16.499 8.463-23.626 3.539-6.765-4.675-8.743-.789-9.337-10.015-.389-6.064-1.088-12.128-.744-18.216 10.23-.927 21.357 1.509 29.744 7.602 4.319 3.139 12.42 13.158 3.963 17.09"/><path fill-rule="evenodd" clip-rule="evenodd" fill="#C6B198" stroke="#000" stroke-width="3" stroke-linecap="round" d="M392.475 298.493c-2.29-.852-4.717-1.457-6.271-3.528"/><path fill-rule="evenodd" clip-rule="evenodd" fill="#6AD7E5" stroke="#000" stroke-width="3" stroke-linecap="round" d="M195.512 13.124c60.365 0 116.953 8.633 146.452 66.629 26.478 65.006 17.062 135.104 21.1 203.806 3.468 58.992 11.157 127.145-16.21 181.812-28.79 57.514-100.73 71.982-160 69.863-46.555-1.666-102.794-16.854-129.069-59.389-30.826-49.9-16.232-124.098-13.993-179.622 2.652-65.771-17.815-131.742 3.792-196.101 22.415-66.763 82.867-81.851 147.928-86.998"/><path fill-rule="evenodd" clip-rule="evenodd" fill="#FFF" stroke="#000" stroke-width="2.908" stroke-linecap="round" d="M206.169 94.16c10.838 63.003 113.822 46.345 99.03-17.197-13.264-56.98-102.632-41.208-99.03 17.197"/><path fill-rule="evenodd" clip-rule="evenodd" fill="#FFF" stroke="#000" stroke-width="2.821" stroke-linecap="round" d="M83.103 104.35c14.047 54.85 101.864 40.807 98.554-14.213-3.966-65.895-111.984-53.18-98.554 14.213"/><path fill-rule="evenodd" clip-rule="evenodd" fill="#FFF" stroke="#000" stroke-width="3" stroke-linecap="round" d="M218.594 169.762c.046 8.191 1.861 17.387.312 26.101-2.091 3.952-6.193 4.37-9.729 5.967-4.89-.767-9.002-3.978-10.963-8.552-1.255-9.946.468-19.576.785-29.526l19.595 6.01z"/><g fill-rule="evenodd" clip-rule="evenodd"><ellipse cx="107.324" cy="95.404" rx="14.829" ry="16.062"/><ellipse fill="#FFF" cx="114.069" cy="99.029" rx="3.496" ry="4.082"/></g><g fill-rule="evenodd" clip-rule="evenodd"><ellipse cx="231.571" cy="91.404" rx="14.582" ry="16.062"/><ellipse fill="#FFF" cx="238.204" cy="95.029" rx="3.438" ry="4.082"/></g><path fill-rule="evenodd" clip-rule="evenodd" fill="#FFF" stroke="#000" stroke-width="3" stroke-linecap="round" d="M176.217 168.87c-6.47 15.68 3.608 47.035 21.163 23.908-1.255-9.946.468-19.576.785-29.526l-21.948 5.618z"/><g fill-rule="evenodd" clip-rule="evenodd"><path fill="#F6D2A2" stroke="#231F20" stroke-width="3" stroke-linecap="round" d="M178.431 138.673c-12.059 1.028-21.916 15.366-15.646 26.709 8.303 15.024 26.836-1.329 38.379.203 13.285.272 24.17 14.047 34.84 2.49 11.867-12.854-5.109-25.373-18.377-30.97l-39.196 1.568z"/><path d="M176.913 138.045c-.893-20.891 38.938-23.503 43.642-6.016 4.692 17.446-41.681 21.498-43.642 6.016-1.565-12.363 0 0 0 0z"/></g></svg>